<?xml version="1.0" encoding="UTF-8"?>
<svg id="Layer_1" xmlns="http://www.w3.org/2000/svg" xmlns:xlink="http://www.w3.org/1999/xlink" viewBox="0 0 32 32">
  <defs>
    <style>
      .cls-1 {
        fill: url(#linear-gradient-2);
      }

      .cls-2 {
        fill: url(#linear-gradient);
      }
    </style>
    <linearGradient id="linear-gradient" x1=".65" y1=".68" x2="31.7" y2="31.66" gradientUnits="userSpaceOnUse">
      <stop offset="0" stop-color="#a8dadc"/>
      <stop offset=".16" stop-color="#b7e0df"/>
      <stop offset=".46" stop-color="#dff2e9"/>
      <stop offset=".58" stop-color="#f1faee"/>
    </linearGradient>
    <linearGradient id="linear-gradient-2" x1=".43" y1=".3" x2="31.96" y2="32.09" gradientUnits="userSpaceOnUse">
      <stop offset=".27" stop-color="#1d3557"/>
      <stop offset="1" stop-color="#457b9d"/>
    </linearGradient>
  </defs>
  <rect class="cls-2" width="32" height="32"/>
  <path class="cls-1" d="M0,0v32h32V0H0ZM11.07,25.44c0,.24-.02.46-.03.68-.07,1.1-.41,1.89-1.04,2.37-.62.48-1.72.72-3.28.72s-2.56-.24-3.15-.73-.9-1.29-.95-2.4c-.02-.29-.03-.62-.04-.98,0-.36.01-.68.05-.95h1.65c-.02.43-.03.83-.02,1.19,0,.36.01.67.02.92,0,.52.19.88.54,1.07.35.2.98.3,1.9.3s1.59-.1,1.97-.3c.38-.2.59-.55.61-1.07.03-.32.05-.56.06-.71,0-.16,0-.38,0-.67-.03-.48.05-3.75-.17-4.02-.23-.26-.92-.55-1.68-.66l-1.65-.38c-.85-.18-1.5-.4-1.96-.68-.46-.27-.86-.97-1.05-1.4-.19-.44-.19-9.89-.22-10.56-.03-.34-.03-1.79.05-2.19.02-1.14.31-1.63.91-2.12.6-.49,1.69-.73,3.26-.73s2.56.24,3.15.72c.59.48.91,1.27.97,2.37,0,.28,0,.6,0,.97,0,.36-.02.68-.05.95h-1.71c.05-.33.07-.7.06-1.13,0-.42-.02-.75-.03-.99,0-.5-.18-.84-.51-1.03-.33-.19-.96-.28-1.87-.28s-1.55.09-1.88.28c-.33.19-.52.53-.56,1.03,0,.24-.02.43-.04.59-.02.16-.01.37-.01.64-.03,2.07-.09,3.47-.08,4.34,0,.72-.01,6.65.15,6.9.25.38.87.6,1.48.75l1.75.37c1.15.23,2.56.81,2.93,1.28.44.57.49,2.89.49,3.88,0,.21,0,1.43,0,1.67ZM19.38,29.84h-1.29l.08-5.08.2-7.25h-.57l-1.51,7.54-1.19,4.78h-2.48v-13.52h1.3l-.07,4.94-.22,7.37h.53l1.75-8.02,1.05-4.29h2.41v13.52ZM19.39,15.66h-2.48l-1.19-4.78-1.51-7.54h-.57l.2,7.24.08,5.08h-1.29V2.13h2.41l1.05,4.29,1.75,8.02h.53l-.22-7.37-.06-4.94h1.3v13.52ZM29.14,26.16c-.04,1.07-.39,1.83-1.04,2.3-.65.46-1.71.7-3.18.7s-2.42-.23-3.05-.7c-.63-.46-.98-1.23-1.03-2.3-.04-.51-.06-.94-.07-1.3,0-.36,0-.83.05-1.4.02-.63-.07-9.14.09-9.6.16-.46.64-.86,1.09-1.16.44-.3,1.11-.51,1.99-.64l1.63-.26c.8-.09,1.31-.29,1.52-.59.21-.3.34-2.73.37-3.3.03-.51.05-1.02.05-1.53,0-.51-.01-1.02-.05-1.52-.04-.44-.25-.77-.62-.98-.38-.21-1.01-.32-1.89-.32s-1.46.1-1.84.32c-.38.21-.58.54-.61.98-.04.55-.06,1.09-.06,1.65s.03,1.11.08,1.66h-1.59c-.02-.58-.04-1.14-.05-1.68,0-.54,0-1,.02-1.36.04-1.06.37-1.82,1-2.28.63-.46,1.63-.69,3.01-.69,1.5,0,2.56.23,3.2.68s.96,1.21.98,2.27c.02.46.04.93.05,1.42,0,.49,0,.94-.02,1.37-.03.65-.13,3.19-.29,3.64-.16.45-.46.81-.9,1.1-.44.28-1.1.5-1.98.65l-1.67.3c-.76.1-1.45.33-1.67.66-.22.33-.16,8.72-.19,9.2-.03.61-.05,1.12-.05,1.52s.01.89.05,1.44c.05.45.25.79.62,1,.37.21.99.32,1.87.32s1.54-.11,1.93-.32c.39-.21.6-.55.64-1,.04-.55.06-1.12.06-1.72s-.02-1.19-.06-1.79h1.58c.04.6.06,1.14.08,1.62.01.48,0,1.02-.04,1.61Z"/>
</svg>